<svg version="1.1" id="Layer_1" xmlns="http://www.w3.org/2000/svg" xmlns:xlink="http://www.w3.org/1999/xlink" x="0px" y="0px"
	 width="100%" viewBox="0 0 880 784" enable-background="new 0 0 880 784" xml:space="preserve">
<path fill="#000000" opacity="1.000000" stroke="none" 
	d="
M49.468578,785.000000 
	C52.729389,776.901306 56.226078,768.783813 61.639038,761.466919 
	C67.413155,753.661926 71.527122,744.783020 73.677193,735.129639 
	C74.982460,729.269226 79.754272,726.399170 84.470337,723.679688 
	C90.371361,720.276917 97.160515,718.673950 102.327942,713.646301 
	C105.428665,710.629395 110.830086,711.305542 114.192635,707.781738 
	C119.769699,701.937256 127.875809,701.627869 134.964371,699.292114 
	C144.478165,696.157227 153.322983,692.294250 159.908356,684.414795 
	C160.435165,683.784424 161.099380,682.914368 161.785995,682.826050 
	C170.216553,681.741577 176.589905,675.574158 184.534180,673.542114 
	C198.544418,669.958496 212.637482,666.826904 227.257645,666.497253 
	C231.421097,666.403442 235.615677,664.879883 239.964386,664.664246 
	C243.799332,664.473999 243.856354,661.860291 241.558289,659.563232 
	C236.372345,654.379517 231.794662,648.697998 227.330444,642.919678 
	C219.025482,632.169922 210.247879,621.724304 202.745911,610.435120 
	C196.973831,601.749146 194.069321,591.528625 193.078491,581.039795 
	C192.165085,571.370361 187.528824,562.465454 187.368179,552.714905 
	C187.136444,538.648682 182.505249,525.246704 181.464905,511.285492 
	C180.954254,504.432892 176.907745,498.714874 173.801590,492.607635 
	C167.577881,480.370636 161.884949,467.623810 161.770111,453.412231 
	C161.616623,434.415894 161.609482,415.417603 161.673889,396.420624 
	C161.692230,391.007599 161.132584,385.733826 158.831879,380.836121 
	C155.978500,374.761963 156.570999,367.812073 153.402084,361.764343 
	C149.133011,353.617096 142.226013,347.720276 136.253418,341.128998 
	C124.608421,328.277771 112.751144,315.643555 101.752106,302.205933 
	C96.308281,295.555176 89.254120,290.307831 84.013313,283.411255 
	C78.789345,276.536835 77.586319,268.980865 80.521942,260.795166 
	C81.859207,257.066345 84.575256,255.173935 88.377037,254.833359 
	C93.350479,254.387848 98.333733,253.977798 103.321663,253.794357 
	C106.665657,253.671371 109.921135,253.645950 113.030441,252.060287 
	C116.624413,250.227432 120.205086,251.438507 123.679337,252.696594 
	C127.323479,254.016174 129.047302,252.457291 129.556595,248.955933 
	C129.676117,248.134369 129.748398,247.293579 129.723755,246.465164 
	C129.203110,228.973709 131.659348,211.559631 130.988510,194.053146 
	C130.655899,185.373489 131.215790,176.708344 135.956573,168.979507 
	C138.879028,164.215057 136.540985,158.288101 139.455597,153.562271 
	C144.839905,144.831985 144.784592,134.527939 147.718414,125.086235 
	C149.560806,119.157043 153.401611,114.604935 157.355652,110.150749 
	C159.637009,107.580811 159.770020,105.482193 157.956757,102.623711 
	C154.085266,96.520531 155.714401,87.794571 160.571457,82.465073 
	C171.908630,70.025146 186.896225,66.300339 202.604141,64.135117 
	C204.355072,63.893764 206.338013,64.135689 208.007828,64.730476 
	C213.019501,66.515617 216.634766,63.267918 220.573486,61.430771 
	C222.594543,60.488098 221.844025,58.173927 221.651489,56.424809 
	C220.543518,46.359253 223.182190,43.865425 233.191956,41.297798 
	C242.744904,38.847355 252.459030,37.634525 262.043701,35.607334 
	C272.640503,33.366081 283.466553,32.767815 294.072906,30.735470 
	C331.748444,23.516233 369.819672,27.955793 407.697205,26.740631 
	C426.184662,32.068710 445.867126,28.678249 464.349426,34.732227 
	C471.050110,36.927082 478.448608,36.982479 485.641907,36.926910 
	C496.800079,36.840710 507.971466,36.491264 519.077515,38.024242 
	C520.555664,38.228283 522.313354,38.056095 523.451843,38.803841 
	C530.647827,43.529926 538.866516,41.961815 546.680420,43.095203 
	C565.291138,45.794624 584.317932,43.573280 602.772888,48.362926 
	C607.626526,49.622601 613.052124,48.749805 618.214722,48.734287 
	C633.867432,48.687237 648.936523,51.765949 663.571716,57.145485 
	C666.677551,58.287117 669.841980,57.659786 672.976807,57.799675 
	C675.989075,57.934101 678.611572,58.574673 679.985474,61.600071 
	C680.572693,62.893284 681.609863,63.633312 682.821106,64.279747 
	C691.856873,69.102150 695.029968,77.879539 689.979187,87.057861 
	C686.912109,92.631340 686.463257,96.895630 690.676270,101.905006 
	C693.921143,105.763260 694.152405,110.845627 693.995728,115.718292 
	C693.863770,119.822227 694.231262,123.876854 696.575867,127.210182 
	C701.496033,134.205200 701.663635,142.203903 702.026306,150.173569 
	C702.495300,160.478119 701.438416,170.819321 703.002441,181.113007 
	C703.659973,185.440491 701.240479,189.433762 700.301025,194.687103 
	C712.790955,183.497192 723.864807,194.131607 735.373413,195.340820 
	C737.670898,195.582214 739.894165,196.466522 742.187805,196.818573 
	C749.706604,197.972687 753.477478,203.054138 751.904907,210.605072 
	C749.078369,224.176804 744.258545,236.876816 736.319336,248.458908 
	C728.008240,260.583466 719.706665,272.814545 712.725769,285.715912 
	C708.049133,294.358612 702.714783,302.399475 697.096558,310.355286 
	C696.565491,311.107300 696.385803,312.216187 696.327026,313.176758 
	C695.433411,327.794006 690.441162,341.884277 690.734619,356.649353 
	C690.913086,365.629089 691.167786,374.561554 689.362549,383.493042 
	C686.238953,398.946503 683.294495,414.447510 680.790894,430.011566 
	C678.521118,444.121796 675.603882,458.074707 672.254944,471.951019 
	C671.026855,477.039856 671.098267,482.212311 671.242493,487.366089 
	C671.500671,496.591827 669.738403,505.378418 667.429749,514.328430 
	C663.783997,528.461975 659.462891,542.406982 655.998657,556.586853 
	C654.460022,562.884949 650.797363,568.372986 648.608521,574.517761 
	C644.827148,585.133728 642.102295,596.156738 637.009521,606.322632 
	C633.100830,614.125061 627.163940,620.446899 622.314697,627.555237 
	C617.974915,633.916809 613.799561,640.394104 608.836304,645.641724 
	C609.252502,647.643860 610.312073,647.820740 611.233826,648.152161 
	C616.344849,649.989502 621.404236,651.576599 625.094849,656.247253 
	C627.143066,658.839355 631.628967,658.001709 634.315186,660.683655 
	C637.118713,663.482788 640.754150,665.484619 641.947083,669.649414 
	C642.079041,670.110107 642.358215,670.713318 642.737549,670.891235 
	C650.446228,674.507629 651.103088,683.143127 654.894287,689.312134 
	C657.447510,693.466736 660.163818,698.230347 661.995850,703.133118 
	C663.545898,707.281311 665.031921,711.646179 669.463989,713.915344 
	C670.159607,714.271545 670.864929,714.990051 671.151733,715.706787 
	C676.082336,728.028992 681.894592,739.809265 684.840210,753.139465 
	C687.129150,763.498047 685.075439,774.467773 689.987305,784.616821 
	C683.645569,785.000000 677.291199,785.000000 670.452515,784.532349 
	C669.150879,778.799927 671.014160,773.200684 668.948608,768.230713 
	C665.658325,760.313904 664.472168,751.887695 662.530457,743.697876 
	C660.821472,736.489746 655.997742,731.214233 652.768005,725.092834 
	C650.109131,720.053406 646.422363,715.296387 643.410339,710.186340 
	C640.064941,704.510742 639.168640,697.580505 634.230347,692.801208 
	C633.253418,691.855713 633.157959,690.433960 632.728516,689.177734 
	C630.808655,683.561462 625.094971,680.828369 622.298523,675.824341 
	C622.077698,675.429199 621.056824,675.307373 620.424683,675.344666 
	C616.850647,675.555359 614.495361,673.472473 612.338867,671.089417 
	C608.050720,666.350769 601.763489,665.890198 596.361755,663.542236 
	C595.592590,663.207886 594.484924,663.324280 594.114075,664.129944 
	C591.890076,668.961121 586.341187,670.179626 583.362976,674.307556 
	C579.799561,679.246582 576.259583,684.258667 571.595032,688.338318 
	C568.725891,690.847778 566.039490,693.567688 563.409058,696.362732 
	C557.614746,702.519531 552.005554,708.845154 545.126953,713.971069 
	C535.372620,721.240051 524.484436,726.508789 514.046997,732.568420 
	C506.473572,736.965332 499.865112,743.124268 491.546844,746.036255 
	C486.376007,747.846375 482.044891,751.146729 479.298737,754.922363 
	C471.609344,765.494080 460.441010,769.003052 448.958374,772.145996 
	C427.917480,777.905090 406.337708,776.099304 384.905701,776.082642 
	C382.964386,776.081116 380.988098,775.383667 379.088715,774.808838 
	C369.166016,771.806396 360.515076,766.138367 351.407288,761.439148 
	C344.910217,758.086975 338.302948,754.673218 332.814056,749.895935 
	C320.828094,739.463867 308.962463,728.843628 297.712708,717.632874 
	C289.804291,709.751953 281.726440,702.338440 272.197693,696.448975 
	C267.701447,693.669800 262.975952,690.617554 259.767029,686.569214 
	C256.089874,681.930237 253.138000,681.145203 247.129150,682.164551 
	C238.452347,683.636414 229.973251,687.409973 220.848221,686.055359 
	C220.079453,685.941284 219.214035,686.302185 218.423187,686.540771 
	C211.786575,688.542480 204.958130,689.608093 198.087494,690.095825 
	C193.631088,690.412109 189.556503,691.165161 186.072205,694.139404 
	C183.908783,695.986023 181.458313,697.007568 178.567139,697.663330 
	C174.776779,698.523132 171.538666,700.630615 168.329697,703.290344 
	C163.088318,707.634583 157.717178,711.903198 150.983826,714.500488 
	C141.281082,718.243103 130.176819,718.837097 122.036430,726.120056 
	C118.823067,728.994934 113.980286,729.415527 111.735077,733.336304 
	C109.940414,736.470276 107.458786,737.185547 103.989624,737.593750 
	C98.260811,738.267883 92.955826,740.294617 90.368156,746.425964 
	C87.745613,752.639893 85.808914,759.023560 82.538223,765.147400 
	C78.923241,771.915955 72.263985,776.976562 71.000000,785.000000 
	C63.979053,785.000000 56.958103,785.000000 49.468578,785.000000 
M533.741150,707.256042 
	C541.292908,702.247375 547.360901,695.684448 553.576416,689.156067 
	C566.054626,676.049805 578.230225,662.742920 588.598206,647.861694 
	C589.616699,646.399841 591.114380,645.139771 592.641357,644.191589 
	C595.848633,642.200073 598.079163,639.410278 600.235352,636.396851 
	C606.191040,628.073181 611.932068,619.547607 618.502808,611.727661 
	C623.643982,605.609131 627.111450,598.756042 629.800720,591.491333 
	C634.231018,579.523438 637.509644,567.099976 642.414368,555.344482 
	C648.085083,541.752808 650.319214,527.260010 654.934143,513.426331 
	C657.100647,506.932068 656.607849,499.894501 658.951660,493.413666 
	C660.500793,489.130249 660.499634,484.703552 660.504028,480.146179 
	C660.512939,470.833435 661.249146,461.453247 663.337585,452.382812 
	C666.017151,440.745331 669.229309,429.294739 670.197632,417.271851 
	C670.819946,409.545868 671.542419,401.660095 674.569763,394.297241 
	C677.530029,387.097656 678.036804,379.295868 678.431458,371.786652 
	C679.059143,359.842285 678.496643,347.814087 680.667908,335.983429 
	C682.777771,324.487061 678.703369,312.165649 685.342285,301.290558 
	C685.500977,301.030518 685.460754,300.639954 685.484985,300.308228 
	C686.630554,284.690582 685.159058,269.414520 679.351868,254.744186 
	C678.590149,252.819778 678.594177,250.463623 676.495239,248.905746 
	C669.831360,256.247864 665.112305,264.873505 659.364746,272.743958 
	C650.554321,284.808533 644.517273,298.638733 635.614990,310.670166 
	C633.988464,312.868378 634.029785,315.204742 635.297607,317.715088 
	C638.428650,323.914795 641.452393,330.067505 642.851868,337.074921 
	C644.570007,345.677643 643.806519,347.999939 635.879028,352.213074 
	C627.805786,356.503601 618.464417,355.490875 610.106384,359.137024 
	C600.570740,363.296844 590.041992,363.256927 579.669556,363.155579 
	C561.854431,362.981537 543.961609,364.587494 526.252747,362.266907 
	C516.937500,361.046265 507.505219,359.682648 498.494019,356.439453 
	C493.895416,354.784393 488.949280,354.095032 483.985931,352.928223 
	C483.120239,358.230042 485.796844,362.591278 486.495239,367.269318 
	C487.501404,374.008759 487.571625,380.848969 488.835175,387.496918 
	C490.890533,398.310974 492.818359,409.067108 491.744019,420.145447 
	C491.570435,421.935303 491.742828,423.822144 492.109985,425.590454 
	C494.031891,434.846100 493.219727,444.187439 493.018494,453.494690 
	C492.864655,460.610046 492.426666,467.392517 496.851898,473.952240 
	C499.899078,478.469208 502.639526,483.230865 506.073639,487.506836 
	C507.857483,489.728027 508.449066,492.201935 508.261993,494.973602 
	C508.145874,496.693817 507.956238,498.409271 506.204224,499.219452 
	C504.184601,500.153381 502.426971,499.143555 501.408905,497.585449 
	C497.887878,492.196625 492.975586,487.832123 490.507050,481.634399 
	C486.785431,472.290588 483.435974,470.965149 474.349091,474.642426 
	C472.376099,475.440887 470.632599,476.809937 468.790802,477.928345 
	C463.548431,481.111603 458.537140,485.067780 452.183746,485.510925 
	C436.251923,486.622101 420.245728,487.487549 404.436523,484.676575 
	C399.182373,483.742340 393.630371,481.392090 390.622192,476.512512 
	C388.261444,472.683197 384.598053,470.045654 382.847443,465.633209 
	C380.365784,467.821625 378.451782,469.727722 377.608978,472.291321 
	C374.639435,481.323944 368.354553,487.873718 361.633759,494.140686 
	C359.306152,496.311127 356.676208,497.505493 354.202057,494.925354 
	C351.682922,492.298279 352.400726,489.525269 355.067352,487.106995 
	C358.127167,484.332123 361.721252,481.840515 363.892639,478.460876 
	C367.459656,472.908905 369.827087,466.638397 373.275269,460.929962 
	C378.571045,452.162750 382.932007,442.893463 387.183777,433.550842 
	C389.744446,427.924225 390.815613,421.867188 393.421356,416.309052 
	C394.104156,414.852570 393.940613,412.876984 392.835175,411.512054 
	C389.616608,407.537872 389.659668,402.886292 389.782745,398.194916 
	C390.218018,381.605560 389.871368,365.149170 393.053711,348.516235 
	C395.734528,334.504547 394.211365,319.665985 397.509033,305.445770 
	C398.262085,302.198425 396.537079,300.383667 393.164886,300.258148 
	C386.317505,300.003235 379.542969,300.601227 372.751465,301.521851 
	C367.665375,302.211304 365.082275,305.025818 364.057007,309.709747 
	C363.703186,311.326233 363.507233,312.982971 363.327698,314.630951 
	C362.316223,323.916443 363.991333,333.327972 362.231079,342.557678 
	C359.998230,354.265320 358.283051,355.305481 348.348694,355.295593 
	C329.371613,355.276703 310.438477,355.423157 291.711365,351.320312 
	C280.317474,348.824127 268.434540,350.980133 256.946716,348.320709 
	C245.775314,345.734528 234.619675,343.152557 223.920273,338.969208 
	C220.669998,337.698364 218.059006,335.165222 217.426010,331.792603 
	C215.348495,320.723602 211.713440,309.818695 213.329742,298.281433 
	C213.910889,294.133240 212.276520,290.884460 208.300201,289.567627 
	C202.303604,287.581757 196.440521,285.225677 190.443665,283.229462 
	C182.087601,280.447876 173.629837,278.089752 165.237442,275.481323 
	C155.814880,272.552704 149.271286,276.975189 149.209076,286.955505 
	C149.113144,302.345947 149.917542,317.677795 155.572800,332.133850 
	C158.565765,339.784485 160.078049,347.991150 165.095764,355.034180 
	C167.449722,358.338287 172.261963,361.046753 171.588303,365.756165 
	C170.408356,374.005035 172.211685,382.011841 172.541702,390.123016 
	C173.280472,408.280426 172.911209,426.440887 172.943329,444.598236 
	C172.968414,458.771820 176.237564,472.467560 183.232712,484.283844 
	C188.903915,493.863647 192.782410,503.579651 194.666397,514.207947 
	C195.910034,521.223694 195.472641,528.532715 196.651993,535.565491 
	C199.259766,551.116333 202.674316,566.532837 205.229523,582.091187 
	C206.443726,589.484375 208.989822,596.434143 212.775925,602.491028 
	C217.122681,609.444824 221.143295,616.658875 226.578949,623.058350 
	C234.084106,631.894226 241.233612,641.027039 249.061554,649.615967 
	C252.933762,653.864685 257.066956,658.268127 258.757477,663.916321 
	C260.580048,670.005737 264.716095,674.522278 269.034332,678.334900 
	C276.571167,684.989258 285.210754,690.376648 293.162201,696.584473 
	C300.609283,702.398499 307.400574,709.003906 313.786133,715.947815 
	C320.020844,722.727722 326.195038,729.535706 333.356018,735.359192 
	C341.737885,742.175537 351.396729,746.960388 360.536743,752.589661 
	C377.867096,763.263306 396.487488,766.647949 416.414734,764.863831 
	C427.879852,763.837341 439.028687,761.192322 450.275391,758.910645 
	C458.154358,757.312256 463.845001,753.167786 469.146912,747.669434 
	C472.427185,744.267639 475.697205,740.439087 479.759796,738.295166 
	C488.248352,733.815491 496.429138,728.919983 504.564270,723.844238 
	C513.843506,718.054749 523.589661,713.013611 533.741150,707.256042 
M380.335968,284.168793 
	C376.416290,286.144836 371.046204,284.542877 367.189209,288.911926 
	C371.489105,290.705109 375.007812,289.970154 378.395599,289.732239 
	C399.624878,288.241394 421.020660,289.208801 442.105011,285.696259 
	C454.179352,283.684723 466.362762,284.988922 478.457428,283.984436 
	C480.589569,283.807343 483.135010,284.104523 484.106537,281.658875 
	C485.681061,277.695251 486.934326,273.600861 488.195099,269.522064 
	C488.291077,269.211548 487.404297,268.551208 486.919525,268.114349 
	C482.330292,263.979279 477.057983,260.740631 473.214539,255.582367 
	C470.794952,252.335037 469.660522,249.341843 469.989960,245.573959 
	C470.175201,243.455276 471.071564,241.575714 473.356720,241.140640 
	C475.773834,240.680450 477.238159,242.328659 477.762146,244.344986 
	C479.603333,251.429764 485.247894,255.045013 490.585236,259.025299 
	C493.915100,261.508514 497.097900,261.270630 500.147919,258.764740 
	C502.499542,256.832672 504.986115,255.223526 507.916321,254.386414 
	C521.011230,250.645386 533.678650,245.576233 547.211243,243.141968 
	C559.118896,241.000000 570.335999,235.113358 582.498413,234.545761 
	C597.872192,233.828293 612.650330,229.668915 627.837463,228.193375 
	C634.115479,227.583435 640.443909,227.670700 646.739380,226.806885 
	C651.671265,226.130127 656.148743,228.456635 658.961792,232.277252 
	C662.029724,236.443878 659.589966,240.597290 656.782471,244.104065 
	C646.782837,256.594177 634.572632,265.790283 618.660400,269.431366 
	C612.794250,270.773651 606.969604,272.297180 600.756897,273.829041 
	C601.518005,274.671661 601.689392,275.033630 601.957031,275.131073 
	C604.602966,276.094452 607.214294,274.880493 609.865051,274.967438 
	C625.414429,275.477478 624.529846,274.998138 627.403137,287.080109 
	C627.875671,289.066956 629.026001,291.025330 631.157288,291.370361 
	C633.508850,291.751068 634.589783,289.645844 635.534058,287.906464 
	C637.674622,283.963928 639.312622,279.695770 641.824219,276.016998 
	C650.522522,263.276581 659.473328,250.707535 668.408936,238.130798 
	C670.398254,235.330826 672.000916,232.239349 672.037964,228.964539 
	C672.122070,221.537415 671.040283,214.184494 669.290833,206.845856 
	C668.383789,207.078827 667.887329,207.133026 667.454590,207.328262 
	C658.492004,211.371964 654.951172,209.002213 654.812805,199.131805 
	C654.394531,169.292480 655.490295,139.569305 660.750183,110.102654 
	C661.841248,103.990158 660.025208,102.482620 653.963684,103.894279 
	C648.336548,105.204773 643.772522,104.133842 640.661194,98.866959 
	C639.438599,96.797287 637.552063,95.928207 635.122681,96.481522 
	C629.286865,97.810638 623.498413,99.431030 617.602722,100.394089 
	C608.753784,101.839561 599.545471,104.078453 590.952820,100.700508 
	C574.533020,94.245583 557.597778,91.816963 540.149475,91.918045 
	C521.151428,92.028114 502.178253,91.319168 483.218933,90.236649 
	C478.749054,89.981422 473.393066,90.229958 470.379120,87.073830 
	C465.951752,82.437584 460.749573,81.127373 455.014587,79.940453 
	C438.796906,76.584045 422.729370,76.634293 406.499512,80.261261 
	C398.475464,82.054443 389.969849,83.635002 382.057922,79.695511 
	C378.792633,78.069656 375.655365,77.282494 372.102203,77.065033 
	C351.978760,75.833389 332.216034,78.278107 312.635620,82.666779 
	C310.046722,83.247040 307.330109,83.019035 304.836914,84.239441 
	C287.634949,92.659660 268.890289,94.706390 250.284760,97.221558 
	C243.248856,98.172691 235.863174,97.521523 229.857681,102.408012 
	C222.539307,108.362785 214.600830,113.329674 206.374847,117.948357 
	C203.021576,119.831146 199.138077,121.361153 197.010361,125.085434 
	C193.439606,131.335556 189.169128,137.196167 183.770508,141.868149 
	C175.909210,148.671310 172.636276,156.436813 173.136215,167.120819 
	C174.178757,189.400818 173.385651,211.731033 170.117294,233.860107 
	C169.013657,241.332596 167.695633,248.832474 162.198593,254.828125 
	C159.551132,257.715729 161.024216,262.126984 165.133926,263.009735 
	C171.167572,264.305695 176.918472,266.554352 182.890823,267.860931 
	C192.780182,270.024475 201.523911,275.123718 211.072205,278.133057 
	C214.429153,279.191010 216.543228,279.736938 219.168839,276.461853 
	C221.358765,273.730225 222.188431,270.369171 224.784668,267.768677 
	C228.918152,263.628479 233.376175,260.094696 238.356827,257.328888 
	C235.555908,247.314972 229.851913,239.166519 224.927475,230.619675 
	C223.467606,228.085938 220.947617,225.590179 222.588882,222.416901 
	C224.463669,218.792114 227.702148,216.980728 231.936249,216.749130 
	C236.675400,216.489914 241.104431,217.674530 245.662674,218.650772 
	C257.073425,221.094681 268.228455,224.337677 279.238556,228.162598 
	C285.622314,230.380310 291.973846,232.796707 298.511078,234.444427 
	C311.700684,237.768890 325.136719,240.217377 338.475586,242.638382 
	C351.562195,245.013641 362.613739,251.244705 373.411041,257.605194 
	C386.564575,265.353729 396.986053,259.910522 404.921814,251.288956 
	C407.230591,248.780655 409.281403,247.654755 412.145630,249.311325 
	C414.733582,250.808121 414.822754,255.135864 412.378632,257.616455 
	C407.566681,262.500183 402.302429,266.821686 395.774170,269.251984 
	C394.215179,269.832367 393.301605,270.774750 392.676086,272.233917 
	C390.354309,277.650208 386.086029,281.161163 380.335968,284.168793 
M460.376343,297.088013 
	C456.273804,295.211212 452.647919,298.137878 448.694763,298.268158 
	C436.244293,298.678619 423.808685,299.530762 411.365173,300.170380 
	C409.373169,300.272766 407.626526,300.630798 407.353607,302.984161 
	C406.109772,313.708923 402.314270,324.132416 402.511261,334.955322 
	C402.718781,346.355652 400.583374,357.424438 399.593872,368.650391 
	C398.565491,380.317413 396.444794,392.026825 399.990295,403.816315 
	C402.292664,411.472137 402.982910,419.442749 400.053436,427.367554 
	C398.433472,431.749847 396.298401,435.891022 394.638306,440.225494 
	C391.758331,447.744934 388.486969,455.123138 392.721832,463.535278 
	C395.752472,469.555328 401.252960,472.795410 407.637573,470.729675 
	C413.460297,468.845764 418.397308,469.977325 421.938141,474.601044 
	C423.866058,477.118591 426.294983,477.536560 428.959991,477.479584 
	C434.947144,477.351593 440.930725,476.823425 446.914276,476.846039 
	C450.677826,476.860229 452.909149,475.446594 454.982239,472.268433 
	C457.603241,468.250214 461.023590,464.647430 466.550018,464.778107 
	C477.873901,465.045868 481.628326,461.424225 483.941223,450.267090 
	C485.636932,442.087097 482.967438,434.414703 482.880005,426.496948 
	C482.762604,415.868011 482.992920,405.262939 480.706238,394.746918 
	C477.385468,379.475433 478.427185,363.398865 471.381348,348.735779 
	C469.150421,344.092926 470.830627,338.203461 470.797089,332.887726 
	C470.764038,327.650940 470.127136,322.410889 467.882446,317.822357 
	C465.817383,313.601135 464.706177,309.418945 464.936188,304.887848 
	C465.108673,301.489532 463.962128,299.087982 460.376343,297.088013 
M601.356201,323.049530 
	C586.235840,324.360413 571.796814,319.795715 557.056213,317.848083 
	C555.468506,317.638306 553.945862,316.695312 552.466187,315.947723 
	C543.445190,311.389954 534.724915,306.192535 524.888550,303.403900 
	C522.184326,302.637268 520.627258,300.647552 521.037292,297.761169 
	C521.443359,294.902100 522.211731,292.093872 525.898560,291.764526 
	C528.543518,291.528229 531.182800,291.055725 533.828308,291.026672 
	C547.653381,290.874542 561.479675,290.836029 575.305481,290.745087 
	C578.935913,290.721222 582.464172,290.302765 585.835144,287.757446 
	C582.264893,286.676086 579.075378,285.974640 575.744324,286.093353 
	C559.952454,286.656189 544.098389,285.098511 528.360779,287.391754 
	C522.133362,288.299164 515.424072,287.213684 509.778381,290.398071 
	C505.889130,292.591736 502.131714,293.682739 497.919342,292.860168 
	C494.629059,292.217712 493.265991,293.383423 493.003387,296.553802 
	C492.018311,308.446289 489.363556,320.181854 490.108765,332.244659 
	C490.554901,339.466827 493.652985,343.732697 500.730713,345.121552 
	C504.965454,345.952545 509.459229,345.855042 513.504578,347.184875 
	C524.758362,350.884338 536.364502,351.395630 547.991150,351.704803 
	C560.467102,352.036591 572.932434,351.216248 585.402466,350.852020 
	C600.107788,350.422516 613.796753,346.212616 627.458740,341.508118 
	C631.384949,340.156097 631.651184,337.422821 629.688477,334.426178 
	C627.563477,331.181915 626.123962,327.732819 624.895569,324.080078 
	C622.888367,318.111786 620.762024,317.181976 615.270081,320.084625 
	C611.135193,322.270081 606.863770,323.103058 601.356201,323.049530 
M234.732117,277.257111 
	C233.744125,278.152679 232.360168,279.036133 232.416321,280.387238 
	C232.712936,287.522888 228.555969,293.504639 227.453156,300.217163 
	C226.475571,306.167664 228.142593,312.145081 228.259201,318.130188 
	C228.410385,325.888855 232.146088,329.911224 240.046082,330.536194 
	C243.055374,330.774292 246.002884,331.068542 248.832748,332.176086 
	C258.326935,335.891907 268.160156,337.813934 278.371338,337.822388 
	C281.695679,337.825165 285.027893,337.921539 288.342773,338.163055 
	C306.241577,339.467438 324.082977,341.626038 342.055756,341.814880 
	C347.820343,341.875488 349.485260,340.302490 349.736481,334.545685 
	C349.961334,329.392181 349.509491,324.163513 350.223907,319.090179 
	C350.910065,314.217865 349.060028,313.843719 345.036530,314.318604 
	C335.355194,315.461212 325.623718,317.023651 315.923981,316.947601 
	C304.209229,316.855743 292.505463,315.258423 280.799957,314.276672 
	C279.816559,314.194183 278.819489,313.937927 277.890381,313.595337 
	C266.652008,309.451385 255.820831,302.597778 257.515472,287.707397 
	C258.269135,281.084900 259.469910,279.022461 266.162842,278.756927 
	C274.482666,278.426819 282.800507,278.505859 291.031799,280.156006 
	C293.454163,280.641632 296.020721,281.373810 299.462097,279.149872 
	C293.763519,278.367218 289.025513,278.327484 284.677216,277.005646 
	C271.199219,272.908508 257.422516,273.030121 243.594772,273.146881 
	C240.238586,273.175232 237.335983,273.895905 234.732117,277.257111 
M726.785339,240.347031 
	C733.042542,232.291504 734.760559,222.151138 739.206604,213.258957 
	C741.267517,209.137054 740.206116,207.365952 735.519897,207.349884 
	C731.110535,207.334747 727.025818,206.594452 722.933289,204.832581 
	C715.448303,201.610229 708.677795,203.014587 702.860718,208.890137 
	C700.999207,210.770386 698.738770,212.252762 696.850830,214.110352 
	C690.068848,220.783432 685.083862,228.212570 687.523254,238.424530 
	C688.334473,241.820312 689.024170,245.288193 690.274353,248.528290 
	C694.615417,259.779022 697.968994,271.152649 696.407166,283.430878 
	C696.292969,284.328369 696.217041,285.501373 697.721497,285.874451 
	C699.612000,284.576324 701.002869,282.755585 701.901001,280.586609 
	C705.020752,273.051910 710.251770,266.743744 714.036316,259.609436 
	C717.559570,252.967621 722.695374,247.448364 726.785339,240.347031 
M118.635712,270.855927 
	C111.515327,265.059082 103.592819,264.580078 95.146988,267.220154 
	C91.275078,268.430481 90.453529,270.694061 92.662422,273.977692 
	C94.964073,277.399261 97.513062,280.545654 100.521606,283.494995 
	C107.093079,289.937195 113.188744,296.888489 119.201279,303.870789 
	C125.922310,311.675812 131.833359,320.226501 140.773331,326.565887 
	C139.560120,314.113861 135.751038,302.423065 136.775620,290.203369 
	C136.927795,288.388428 136.272934,286.480988 134.815582,285.217560 
	C129.545456,280.648621 125.036591,275.228119 118.635712,270.855927 
M616.761414,296.712708 
	C616.745361,294.212402 615.312927,292.972198 612.991211,293.117310 
	C609.471741,293.337311 604.005249,291.552002 602.924744,294.989136 
	C600.846130,301.601624 597.384583,307.180328 593.853821,312.883972 
	C593.570312,313.341919 593.816406,314.127716 593.816406,315.272583 
	C599.265808,315.982574 604.372986,316.144104 608.998657,312.723358 
	C611.771851,310.672424 616.199646,311.685150 618.073120,308.129059 
	C620.023376,304.427216 616.473083,301.179810 616.761414,296.712708 
M342.338257,290.897644 
	C345.332306,293.214020 346.923187,297.371826 351.293518,298.055542 
	C354.059357,288.221527 352.960907,286.744690 343.186890,286.105682 
	C339.894928,285.890442 336.640594,285.137573 333.358582,284.711365 
	C332.178436,284.558136 330.753632,283.742371 329.659210,286.039093 
	C333.706390,287.571075 337.679230,289.074921 342.338257,290.897644 
M551.747681,299.002197 
	C549.547424,299.294952 547.290039,297.622009 544.658630,299.370819 
	C548.187073,306.229797 555.148376,306.789001 561.074890,309.562195 
	C562.464783,301.350800 560.958069,299.630859 551.747681,299.002197 
M322.672791,304.863922 
	C327.148773,304.040955 332.092407,305.978973 336.636047,303.092896 
	C329.482117,295.860504 321.666199,296.481842 315.472778,304.308899 
	C317.492523,305.582367 319.684509,304.708740 322.672791,304.863922 
M284.573975,301.065002 
	C282.781982,298.643951 281.523987,295.939484 280.178192,293.255768 
	C277.784760,288.482819 273.022217,287.753937 268.785614,291.261749 
	C271.133667,296.922241 279.106506,302.305054 284.800476,302.053619 
	C284.811951,302.053101 284.809692,301.741150 284.573975,301.065002 
M474.491913,297.585480 
	C471.195984,304.503418 474.106079,310.201874 478.032196,316.488373 
	C480.750580,310.602631 480.017456,305.144348 479.463013,299.798706 
	C479.246368,297.709839 477.698303,296.165741 474.491913,297.585480 
z"/>
<path fill="#000000" opacity="1.000000" stroke="none" 
	d="
M336.235596,647.745178 
	C329.801361,641.047607 323.654236,634.611145 317.964447,627.667236 
	C314.688446,623.669128 313.308105,619.444275 311.767609,614.920837 
	C308.874329,606.425171 308.905121,606.653442 301.449921,611.080750 
	C298.140991,613.045654 296.207336,616.153076 293.613190,618.670471 
	C288.252502,623.872681 281.461823,627.393921 276.874054,633.520447 
	C274.565063,636.603943 270.988922,636.844788 267.928497,634.577087 
	C264.541595,632.067444 267.529297,629.538330 268.541748,627.122192 
	C271.451508,620.178345 278.629059,617.845154 283.708710,613.245850 
	C293.993011,603.934082 304.606262,595.162354 313.143127,583.881714 
	C321.276764,573.133911 330.651917,562.835754 344.037476,558.163391 
	C350.746552,555.821472 357.776184,554.418945 364.576294,552.184387 
	C369.586487,550.538025 374.206024,547.573059 379.704102,547.261047 
	C380.771912,547.200439 381.848114,545.815857 382.769531,544.891479 
	C387.780273,539.864868 394.174408,536.973511 400.223206,533.565552 
	C401.858307,532.644287 403.847748,532.587219 405.573364,533.381226 
	C414.867554,537.657715 425.970184,536.640869 434.568268,542.004700 
	C444.304504,548.078552 453.080688,544.631958 462.325958,542.160522 
	C465.385773,541.342529 468.268219,539.744995 471.229462,539.051575 
	C481.592651,536.625061 491.993378,532.698975 502.806885,537.152344 
	C503.881500,537.594849 505.101685,537.883667 505.971985,538.591187 
	C513.560913,544.760254 522.018555,549.623596 530.255127,554.809753 
	C536.979309,559.043579 543.875549,563.003296 550.632812,567.185852 
	C558.515137,572.064880 564.510193,578.813965 569.934570,586.268494 
	C573.538147,591.220825 577.587036,595.964844 582.049744,600.147949 
	C588.012756,605.737427 592.467346,612.555786 598.055542,618.424072 
	C600.399902,620.885864 600.089233,623.864502 597.699585,625.985291 
	C595.225891,628.180664 592.184998,627.594482 590.082642,625.277527 
	C585.516479,620.245239 580.899475,615.193542 576.967590,609.676331 
	C574.692627,606.484070 571.464600,604.437866 569.108765,601.402832 
	C567.387024,599.184692 565.747559,600.601318 564.562256,602.718201 
	C556.032043,617.952637 543.340088,628.399353 527.759521,636.091431 
	C518.075989,640.872070 508.914154,647.097168 498.467590,649.772827 
	C485.535583,653.085022 472.586212,656.578735 460.321411,661.504883 
	C436.083496,671.239929 410.994690,668.971436 386.289307,667.523743 
	C370.247192,666.583679 354.399933,661.035217 340.629395,651.580200 
	C339.132111,650.552063 337.851654,649.208069 336.235596,647.745178 
M324.144623,612.201050 
	C326.441956,615.654053 328.417816,619.383362 331.100342,622.505371 
	C337.654205,630.132996 343.661865,638.710632 352.912506,643.152649 
	C365.829346,649.355286 379.643036,653.854919 393.828430,655.409851 
	C414.635529,657.690613 435.288666,655.813354 455.287354,648.690247 
	C465.758209,644.960815 476.360107,641.435974 487.141663,638.792908 
	C496.089966,636.599182 504.563812,633.716125 512.285828,628.723572 
	C514.536377,627.268494 516.912109,626.138306 519.369324,625.078796 
	C526.096802,622.177795 532.276550,618.246704 537.933594,613.668701 
	C542.033020,610.351135 545.545593,606.299500 549.253357,602.510132 
	C551.525696,600.187744 553.047363,597.514893 550.099670,594.752869 
	C547.205688,592.041138 543.564392,589.992615 539.631409,591.502136 
	C531.732666,594.533875 523.549133,595.077576 515.265320,595.773376 
	C492.437195,597.690857 469.701660,598.650085 447.360046,592.101074 
	C443.057831,590.839966 438.832642,590.718445 434.599762,592.175415 
	C427.258698,594.702087 419.710999,595.178955 411.982391,595.292358 
	C385.198669,595.685120 358.367828,593.725891 331.633148,596.912598 
	C321.800598,598.084656 319.385925,602.301514 324.144623,612.201050 
M352.539978,581.889526 
	C367.861176,581.880432 383.182678,581.928467 398.503387,581.837952 
	C405.981537,581.793762 413.474548,582.434448 420.930847,581.078857 
	C437.022186,578.153381 453.047028,579.003906 468.919617,582.603088 
	C479.355225,584.969360 489.555359,586.652710 500.426514,584.220947 
	C507.949158,582.538208 515.843628,581.908508 523.673279,581.451355 
	C529.824097,581.092285 536.168640,580.800842 542.364990,578.111328 
	C540.743896,575.935120 538.789429,575.130249 536.853027,574.195007 
	C529.227173,570.511719 521.813782,566.581421 515.030273,561.317566 
	C509.696655,557.178711 503.855408,553.578308 498.187897,549.878906 
	C489.656677,544.310303 480.487610,548.589111 473.240265,552.645752 
	C464.625793,557.467590 454.906708,555.678711 446.485748,559.776123 
	C445.468994,560.270874 443.680542,559.081238 442.225983,558.791504 
	C435.175323,557.386841 429.270660,552.947205 422.340942,551.276001 
	C417.821228,550.186096 413.187897,549.665283 408.838806,547.781921 
	C405.977203,546.542786 403.151642,547.301392 400.191833,548.500916 
	C395.333466,550.469849 393.316589,555.903198 388.627502,557.659119 
	C379.325958,561.142273 370.390320,565.611511 360.442627,567.416138 
	C355.271057,568.354309 350.207367,570.303772 345.335846,572.365540 
	C340.177521,574.548706 335.610535,577.756348 331.991272,584.112366 
	C339.213348,583.112976 345.316223,581.392822 352.539978,581.889526 
z"/>
<path fill="#000000" opacity="1.000000" stroke="none" 
	d="
M408.669189,686.677185 
	C398.908173,689.456299 391.460388,694.306885 387.484833,703.778198 
	C385.941498,707.455017 379.597504,708.463074 376.000275,705.908875 
	C372.219543,703.224426 373.570343,699.984009 375.451080,696.720947 
	C380.959991,687.163086 388.291687,679.725708 398.515411,675.070374 
	C405.331238,671.966797 412.554291,671.804504 419.513397,672.183411 
	C429.039001,672.702026 438.662964,672.370911 448.088593,675.631348 
	C458.717163,679.307922 466.788300,685.345215 472.144684,695.118958 
	C473.879486,698.284424 473.872772,701.434631 470.556213,703.420776 
	C467.223694,705.416504 463.448151,705.218384 461.150696,701.911011 
	C454.914368,692.933655 446.686188,688.298584 435.666260,687.831665 
	C430.778381,687.624573 425.882965,686.057556 421.130432,684.640320 
	C416.659851,683.307129 413.015991,685.628235 408.669189,686.677185 
z"/>
<path fill="#000000" opacity="1.000000" stroke="none" 
	d="
M577.800232,561.214966 
	C575.396973,556.538330 571.744629,553.238525 568.525879,549.775635 
	C558.907410,539.427551 548.804871,529.527344 538.818604,519.524841 
	C536.923950,517.627136 535.888000,515.471924 535.867249,512.882385 
	C535.839661,509.418915 538.695679,507.170685 541.854492,508.353333 
	C544.612793,509.386047 547.283142,510.533966 549.499023,512.830811 
	C558.788269,522.459473 568.566467,531.631348 577.569397,541.513611 
	C580.849854,545.114563 584.454895,548.602417 586.964478,553.024658 
	C588.960510,556.541931 589.667969,559.607300 586.589172,562.437622 
	C583.626038,565.161560 580.728271,563.372192 577.800232,561.214966 
z"/>
<path fill="#000000" opacity="1.000000" stroke="none" 
	d="
M309.715729,540.744080 
	C303.003113,548.128540 297.593292,556.080688 291.872253,563.796631 
	C289.953278,566.384705 287.524323,568.095093 284.190063,566.071228 
	C280.950745,564.105042 280.396820,561.244263 281.746094,557.870850 
	C282.115784,556.946533 282.381378,555.928101 282.957886,555.147034 
	C289.932770,545.697266 296.115173,535.620972 304.797882,527.515442 
	C307.007446,525.452759 309.574982,524.540771 312.532745,524.773376 
	C314.959900,524.964294 316.374084,526.513306 317.281433,528.649902 
	C318.159760,530.718201 317.877502,532.429260 316.174957,534.049438 
	C314.015564,536.104370 312.044983,538.357727 309.715729,540.744080 
z"/>
<path fill="#000000" opacity="1.000000" stroke="none" 
	d="
M495.668640,216.066910 
	C492.897552,213.264572 493.680359,210.043137 495.223816,207.970673 
	C497.927979,204.339645 499.289917,200.044312 501.970703,196.436432 
	C507.546997,188.931763 511.017609,180.266647 515.275513,172.018753 
	C518.243652,166.269363 519.917908,160.569244 520.811401,154.335159 
	C521.243530,151.319885 522.596924,148.324783 526.667725,149.035812 
	C530.558228,149.715317 532.149536,153.077774 531.609314,156.071136 
	C530.360779,162.988602 530.052185,170.011368 526.072998,176.556168 
	C522.322021,182.725769 519.412903,189.541748 515.725464,195.843582 
	C512.147705,201.958069 508.379944,207.978546 504.364075,213.812073 
	C502.442169,216.603912 499.777374,218.950134 495.668640,216.066910 
z"/>
<path fill="#000000" opacity="1.000000" stroke="none" 
	d="
M374.724243,189.061539 
	C370.648956,181.881256 365.445984,175.826828 362.352112,168.448502 
	C360.874268,164.924164 359.576141,161.820374 363.890503,159.560959 
	C367.689575,157.571411 371.984222,159.119965 374.066040,162.983948 
	C379.075409,172.281601 385.731018,180.538956 391.070312,189.602158 
	C394.055115,194.668747 398.055450,199.255722 399.480865,205.216248 
	C400.364197,208.910004 400.458527,212.317337 396.461151,214.129013 
	C392.572418,215.891479 390.816315,213.182190 388.382935,210.526398 
	C382.599548,204.214325 381.505035,195.059143 374.724243,189.061539 
z"/>
</svg>